<svg width="1600" height="900" viewBox="0 0 1600 900" fill="none" xmlns="http://www.w3.org/2000/svg">
  <rect width="1600" height="900" fill="#F3EFE6"/>
  <rect x="68" y="68" width="1464" height="764" rx="36" fill="url(#bg)"/>
  <circle cx="1324" cy="202" r="118" fill="#F0C66A" fill-opacity="0.24"/>
  <circle cx="1258" cy="246" r="52" fill="#D76C4A" fill-opacity="0.24"/>
  <circle cx="274" cy="714" r="136" fill="#6C8D7A" fill-opacity="0.18"/>
  <rect x="174" y="186" width="820" height="458" rx="28" fill="#1D2A38"/>
  <rect x="210" y="224" width="748" height="332" rx="18" fill="#0E1721"/>
  <rect x="240" y="258" width="290" height="22" rx="11" fill="#304255"/>
  <rect x="240" y="308" width="472" height="16" rx="8" fill="#36516C"/>
  <rect x="240" y="344" width="410" height="16" rx="8" fill="#36516C"/>
  <rect x="240" y="380" width="338" height="16" rx="8" fill="#36516C"/>
  <rect x="240" y="446" width="540" height="68" rx="16" fill="#152332"/>
  <rect x="266" y="470" width="168" height="20" rx="10" fill="#8BC68B"/>
  <rect x="442" y="470" width="118" height="20" rx="10" fill="#E2B761"/>
  <rect x="568" y="470" width="186" height="20" rx="10" fill="#D76C4A"/>
  <path d="M334 644H834L922 726H246L334 644Z" fill="#2A3A4A"/>
  <path d="M1112 296C1112 272.804 1130.8 254 1154 254H1326C1349.2 254 1368 272.804 1368 296V552C1368 575.196 1349.2 594 1326 594H1154C1130.8 594 1112 575.196 1112 552V296Z" fill="#FAF7F1"/>
  <rect x="1140" y="286" width="200" height="28" rx="14" fill="#E5DED3"/>
  <rect x="1146" y="340" width="188" height="124" rx="20" fill="#EFE8DC"/>
  <path d="M1174 432C1200.4 398.667 1234.4 382 1276 382C1296 382 1315.33 386.667 1334 396V464H1174V432Z" fill="#D76C4A"/>
  <path d="M1174 442C1203.33 466.667 1237.33 479 1276 479C1298 479 1317.33 474.667 1334 466V522H1174V442Z" fill="#6C8D7A"/>
  <rect x="1146" y="490" width="188" height="32" rx="16" fill="#1D2A38"/>
  <rect x="1146" y="538" width="124" height="18" rx="9" fill="#B7AA95"/>
  <rect x="174" y="700" width="664" height="72" rx="24" fill="#FAF7F1" fill-opacity="0.92"/>
  <rect x="206" y="728" width="188" height="16" rx="8" fill="#6C8D7A"/>
  <rect x="418" y="728" width="238" height="16" rx="8" fill="#D7CABC"/>
  <rect x="680" y="728" width="118" height="16" rx="8" fill="#E2B761"/>
  <path d="M1148 666H1350" stroke="#1D2A38" stroke-width="18" stroke-linecap="round"/>
  <path d="M1180 712H1322" stroke="#1D2A38" stroke-width="18" stroke-linecap="round" opacity="0.72"/>
  <defs>
    <linearGradient id="bg" x1="176" y1="124" x2="1442" y2="812" gradientUnits="userSpaceOnUse">
      <stop stop-color="#FFF8EE"/>
      <stop offset="1" stop-color="#F7F0E4"/>
    </linearGradient>
  </defs>
</svg>
